<?xml version="1.0" encoding="UTF-8"?>
<!DOCTYPE svg PUBLIC "-//W3C//DTD SVG 1.1//EN" "http://www.w3.org/Graphics/SVG/1.1/DTD/svg11.dtd">
<!-- Creator: CorelDRAW 2019 (64 Bit) -->
<svg xmlns="http://www.w3.org/2000/svg" xml:space="preserve" width="293px" height="43px" version="1.1" style="shape-rendering:geometricPrecision; text-rendering:geometricPrecision; image-rendering:optimizeQuality; fill-rule:evenodd; clip-rule:evenodd"
viewBox="0 0 8.4 1.25"
 xmlns:xlink="http://www.w3.org/1999/xlink">
 <defs>
  <style type="text/css">
   <![CDATA[
    .fil0 {fill:#FEFEFE;fill-rule:nonzero}
    .fil4 {fill:#F5A4C0;fill-rule:nonzero}
    .fil1 {fill:#5B2200;fill-rule:nonzero}
    .fil2 {fill:#8E4500;fill-rule:nonzero}
    .fil3 {fill:#947456;fill-rule:nonzero}
   ]]>
  </style>
 </defs>
 <g id="Camada_x0020_1">
  <metadata id="CorelCorpID_0Corel-Layer"/>
  <g id="_1615267433696">
   <path class="fil0" d="M5.94 0.51c0,0.02 -0.02,0.04 -0.05,0.04 -0.04,0 -0.06,-0.02 -0.06,-0.04 0,-0.02 0.02,-0.03 0.06,-0.03 0.03,0 0.05,0.01 0.05,0.03z"/>
   <path class="fil0" d="M1.69 0.52c0,0.02 -0.03,0.03 -0.06,0.03 -0.04,0 -0.06,-0.01 -0.06,-0.03 0,-0.02 0.02,-0.03 0.06,-0.03 0.03,0 0.06,0.01 0.06,0.03z"/>
   <path class="fil1" d="M0 1.19c0.03,0.03 0.06,0.04 0.11,0.05 0.14,0.02 0.25,-0.07 0.3,-0.16 0.05,-0.11 0.09,-0.22 0.1,-0.33 0.01,-0.07 0.01,-0.14 0.05,-0.21 0.05,-0.06 0.22,-0.16 0.28,-0.11 0.06,0.06 -0.09,0.15 -0.03,0.21 0.05,0.06 0.24,0.06 0.29,0 0.04,-0.05 -0.03,-0.1 -0.03,-0.15 0.01,-0.07 0.2,-0.14 0.26,-0.08 0.11,0.1 -0.05,0.2 -0.04,0.32 0,0.05 0.01,0.16 0.16,0.17 0.17,0.02 0.36,-0.03 0.35,-0.13 -0.01,-0.16 -0.16,-0.21 -0.11,-0.31 0.04,-0.09 0.21,-0.18 0.38,-0.1 0.09,0.05 -0.08,0.14 0.11,0.14 0.13,0 0.04,-0.09 0.09,-0.13 0.16,-0.13 0.53,-0.06 0.69,0.03 0.05,0.03 0.1,0.06 0.17,0.06 0.1,-0.01 0.13,-0.11 0.23,-0.11 0.07,0.01 0.09,0.06 0.1,0.1 0.01,0.07 -0.07,0.18 0.04,0.23 0.06,0.03 0.2,0 0.2,-0.08 0,-0.05 -0.04,-0.1 0,-0.14 0.04,-0.04 0.12,-0.07 0.2,-0.06 0.08,0.02 0.06,0.09 0.13,0.11 0.06,0.02 0.12,-0.02 0.17,-0.06 0.05,-0.03 0.1,-0.07 0.16,-0.06 0.11,0 0.11,0.09 0.1,0.15 -0.02,0.06 -0.08,0.14 -0.05,0.19 0.03,0.06 0.14,0.08 0.24,0.07 0.12,-0.01 0.16,-0.07 0.15,-0.11 -0.08,-0.21 0.01,-0.25 0.1,-0.26 0.13,-0.03 0.31,-0.01 0.39,0.04 0.26,0.19 -0.11,0.53 0.2,0.69 0.02,0.01 0.05,0.02 0.08,0.02 0.2,0.01 0.26,-0.07 0.29,-0.13 0.09,-0.17 -0.08,-0.36 0,-0.53 0.03,-0.06 0.16,-0.13 0.37,-0.08 0.21,0.04 0.08,0.29 0.31,0.3 0.19,0.01 0.16,-0.2 0.34,-0.24 0.11,-0.02 0.33,0.02 0.39,0.07 0.08,0.09 0.02,0.2 0.32,0.2 0.33,0 0.22,-0.14 0.35,-0.23 0.06,-0.04 0.18,-0.03 0.26,-0.02 0.04,0 0.07,0.01 0.08,0 0.03,0 0.06,0.01 0.09,0.02 0.01,0 0.02,0 0.03,0l0 -0.54 -8.4 0 0 1.19z"/>
   <path class="fil2" d="M0.84 0.44c-0.02,-0.1 -0.19,-0.08 -0.28,-0.04 -0.12,0.06 -0.19,0.17 -0.24,0.26 -0.07,0.11 -0.06,0.24 -0.11,0.35 -0.02,0.03 -0.04,0.06 -0.07,0.08l0 0.16c0.13,0 0.23,-0.09 0.27,-0.17 0.05,-0.11 0.09,-0.22 0.1,-0.33 0.01,-0.07 0.01,-0.14 0.05,-0.21 0.05,-0.06 0.22,-0.16 0.28,-0.11 0,0.01 0,0.01 0,0.01 0,0 0,0 0,0z"/>
   <path class="fil2" d="M1.8 0.77c-0.06,0.04 -0.13,0.06 -0.2,0.06 -0.07,0 -0.12,-0.01 -0.17,-0.04 -0.08,-0.05 -0.02,-0.15 0,-0.21 0.01,-0.09 -0.01,-0.23 -0.22,-0.2 -0.01,0 -0.01,0.01 -0.01,0.01 0.05,-0.01 0.11,-0.01 0.13,0.02 0.11,0.1 -0.05,0.2 -0.04,0.32 0,0.05 0.01,0.16 0.16,0.17 0.17,0.02 0.36,-0.03 0.35,-0.13z"/>
   <path class="fil2" d="M1.08 0.53c-0.01,0.03 -0.04,0.07 -0.07,0.08 -0.03,0.02 -0.13,0.05 -0.18,-0.01 -0.01,-0.01 -0.02,-0.02 -0.02,-0.03 -0.02,0.02 -0.02,0.05 0,0.07 0.05,0.06 0.24,0.06 0.29,0 0.03,-0.03 0,-0.07 -0.02,-0.11z"/>
   <path class="fil2" d="M2.26 0.46c-0.04,0.01 -0.07,0.02 -0.1,0.01 -0.01,0 -0.04,-0.02 -0.06,-0.05 -0.01,0.04 -0.05,0.08 0.08,0.08 0.06,0 0.07,-0.02 0.08,-0.04z"/>
   <path class="fil2" d="M3.24 0.4c-0.03,0 -0.06,0 -0.09,0 -0.05,0 -0.08,-0.02 -0.12,-0.04 -0.07,-0.03 -0.13,-0.07 -0.22,-0.08 -0.09,-0.01 -0.18,-0.01 -0.27,0 -0.04,0.01 -0.08,0.02 -0.11,0.03 0.18,-0.03 0.41,0.03 0.53,0.09 0.05,0.03 0.1,0.06 0.17,0.06 0.05,-0.01 0.08,-0.03 0.11,-0.06z"/>
   <path class="fil2" d="M3.7 0.61c-0.04,0.02 -0.09,0.02 -0.13,0.01 -0.08,-0.01 -0.05,-0.06 -0.05,-0.07 -0.01,-0.05 0,-0.13 -0.08,-0.16 0.01,0.02 0.01,0.04 0.02,0.06 0.01,0.07 -0.07,0.18 0.04,0.23 0.06,0.03 0.19,0 0.2,-0.07z"/>
   <path class="fil2" d="M4.08 0.51c0,0 -0.01,0 -0.01,-0.01 -0.02,-0.03 -0.05,-0.05 -0.08,-0.07 -0.05,-0.04 -0.15,-0.06 -0.19,-0.02 0.03,-0.01 0.07,-0.01 0.1,-0.01 0.08,0.02 0.06,0.09 0.13,0.11 0.02,0 0.04,0.01 0.05,0z"/>
   <path class="fil2" d="M4.8 0.7l0 0c-0.06,0.05 -0.13,0.06 -0.22,0.01 -0.03,-0.02 -0.02,-0.05 -0.01,-0.07 0.01,-0.03 0.01,-0.05 0.01,-0.08 0,-0.06 -0.07,-0.2 -0.21,-0.17 0.1,0.01 0.1,0.09 0.09,0.15 -0.02,0.06 -0.08,0.14 -0.05,0.19 0.03,0.06 0.14,0.08 0.24,0.07 0.11,-0.01 0.15,-0.06 0.15,-0.1z"/>
   <path class="fil2" d="M5.88 0.99c-0.04,0.04 -0.1,0.09 -0.2,0.08 -0.1,-0.01 -0.15,-0.09 -0.15,-0.14 0.01,-0.13 0.1,-0.24 0,-0.36 -0.07,-0.09 -0.2,-0.16 -0.36,-0.18 -0.06,-0.01 -0.28,-0.01 -0.3,0.04 0.01,0 0.02,0 0.03,0 0.13,-0.03 0.31,-0.01 0.39,0.04 0.26,0.19 -0.11,0.53 0.2,0.69 0.02,0.01 0.05,0.02 0.08,0.02 0.2,0.01 0.26,-0.07 0.29,-0.13 0.01,-0.02 0.02,-0.04 0.02,-0.06z"/>
   <path class="fil2" d="M6.71 0.64c-0.05,0.02 -0.1,0.02 -0.15,0.01 -0.04,-0.01 -0.09,-0.08 -0.11,-0.1 -0.07,-0.1 -0.26,-0.24 -0.52,-0.09 0.06,-0.03 0.16,-0.05 0.3,-0.02 0.21,0.04 0.08,0.29 0.31,0.3 0.09,0.01 0.13,-0.04 0.17,-0.1z"/>
   <path class="fil2" d="M7.89 0.58c-0.02,0.02 -0.05,0.05 -0.09,0.07 -0.1,0.08 -0.31,0.01 -0.38,-0.04 -0.09,-0.07 -0.19,-0.12 -0.35,-0.12 -0.03,0 -0.06,0 -0.08,0 0.1,0.01 0.23,0.04 0.28,0.08 0.08,0.09 0.02,0.2 0.32,0.2 0.28,0 0.24,-0.1 0.3,-0.19z"/>
   <path class="fil3" d="M1.56 0.55c-0.03,0.02 -0.02,0.05 -0.01,0.08 0.01,0.02 0.02,0.04 0.02,0.06 0.01,0.02 -0.02,0.04 -0.03,0.06 -0.02,0.03 0.05,0.07 0.1,0.06 0.1,-0.03 0.12,-0.08 0.1,-0.14 -0.02,-0.04 -0.08,-0.08 -0.13,-0.12 -0.01,-0.01 -0.04,-0.01 -0.05,0z"/>
   <path class="fil3" d="M0.98 0.52c-0.01,0.01 -0.01,0.02 -0.01,0.03 0,0.02 0.04,0.03 0.06,0.01 0.01,-0.02 0,-0.03 -0.02,-0.05 0,0 -0.01,-0.01 -0.02,-0.01 -0.01,0.01 -0.01,0.01 -0.01,0.02z"/>
   <path class="fil3" d="M2.16 0.4c0.01,0 0.01,0 0.01,0 -0.01,-0.01 -0.01,-0.01 -0.02,-0.02 0,0.01 0.01,0.02 0.02,0.03 0.01,0.01 0.01,0.02 0.02,0.03 0.01,0.01 0.03,0.01 0.04,0 0.03,-0.01 0.02,-0.03 0.01,-0.04 -0.02,-0.02 -0.04,-0.03 -0.07,-0.03 -0.01,0 -0.02,0.02 -0.01,0.02 -0.01,0 0,0.01 0,0.01z"/>
   <polygon class="fil4" points="3.18,0.36 3.18,0.35 "/>
   <path class="fil3" d="M3.2 0.32c0,0 0,0 0,0 0.01,0 0.01,0 0.01,0 -0.01,0 -0.01,0 -0.01,0.01 0,0 -0.01,0 -0.02,0.01 -0.01,0.01 -0.01,0.03 0.02,0.03 0.03,0 0.06,-0.01 0.05,-0.03 0,-0.01 -0.01,-0.03 -0.04,-0.02 0.01,0 0.01,0 0.01,0 0,-0.01 0,-0.01 -0.01,-0.01 0,0 -0.01,0.01 -0.01,0.01z"/>
   <path class="fil3" d="M3.58 0.51c0.01,0.01 0.01,0.03 0.01,0.04 0,0.02 -0.02,0.03 -0.01,0.04 0,0 0.01,0.01 0.02,0.01 0.04,0 0.05,-0.03 0.05,-0.05 0,-0.02 -0.02,-0.04 -0.05,-0.06 -0.02,0 -0.03,0.01 -0.02,0.02z"/>
   <path class="fil3" d="M4.22 0.37c-0.03,-0.01 -0.07,0 -0.1,0.01 -0.03,0.02 -0.05,0.05 -0.03,0.08 0.01,0.01 0.04,0.01 0.06,0.01 0.03,-0.01 0.04,-0.04 0.04,-0.06 0,0.01 0,0 0,0 0,-0.01 0.01,-0.01 0.01,-0.01 0.01,-0.01 0.01,-0.01 0.03,-0.01 0.01,-0.01 0,-0.02 -0.01,-0.02z"/>
   <path class="fil3" d="M4.66 0.57c-0.01,0.04 -0.01,0.07 -0.01,0.1 0.01,0.04 0.11,0.04 0.11,0 0,-0.04 -0.04,-0.07 -0.07,-0.1 0,-0.01 -0.03,-0.01 -0.03,0z"/>
   <path class="fil3" d="M4.68 0.51c0.02,-0.03 0.04,-0.05 0.06,-0.07 0.03,-0.02 0.06,-0.03 0.08,-0.05 0.01,-0.01 0,-0.02 -0.01,-0.02 -0.06,0.01 -0.1,0.02 -0.13,0.05 -0.04,0.03 -0.05,0.05 -0.03,0.09 0,0.01 0.03,0 0.03,0z"/>
   <path class="fil3" d="M5.71 0.67c-0.05,0.08 -0.05,0.17 -0.01,0.25 0.02,0.05 0.15,0.03 0.13,-0.02 -0.03,-0.08 -0.11,-0.13 -0.06,-0.21 0.01,-0.02 -0.04,-0.03 -0.06,-0.02z"/>
   <path class="fil3" d="M6.72 0.45c-0.04,0.02 -0.08,0.02 -0.12,0.04 -0.06,0.02 -0.09,0.06 -0.06,0.1 0.01,0.02 0.05,0.03 0.07,0.03 0,0 -0.01,0 -0.01,0 0.03,0 0.06,-0.01 0.08,-0.02l0 -0.01c-0.01,0.01 -0.03,0.02 -0.04,0.03 0.04,-0.01 0.06,-0.03 0.06,-0.06 0,0 0,0 0,0 0,0 0,0 0.01,-0.01 -0.01,0.01 0.01,-0.01 0.01,-0.01 0.01,-0.02 0.03,-0.04 0.05,-0.06 0.02,-0.02 -0.02,-0.04 -0.05,-0.03z"/>
   <path class="fil3" d="M7.99 0.43c-0.18,-0.03 -0.35,0.04 -0.38,0.15 0,0.02 0.01,0.04 0.05,0.06 0.03,0.01 0.06,0.01 0.09,0 0.03,-0.01 0.05,-0.03 0.05,-0.05 0,-0.07 0.07,-0.13 0.19,-0.14 0.01,-0.01 0.01,-0.02 0,-0.02z"/>
  </g>
 </g>
</svg>
